<?xml version="1.0" standalone="no"?>
<!DOCTYPE svg PUBLIC "-//W3C//DTD SVG 20010904//EN"
 "http://www.w3.org/TR/2001/REC-SVG-20010904/DTD/svg10.dtd">
<svg version="1.0" xmlns="http://www.w3.org/2000/svg"
 width="749.000000pt" height="749.000000pt" viewBox="0 0 749.000000 749.000000"
 preserveAspectRatio="xMidYMid meet">
<metadata>
Created by potrace 1.14, written by Peter Selinger 2001-2017
</metadata>
<g transform="translate(0.000000,749.000000) scale(0.100000,-0.100000)"
fill="#000000" stroke="none">
<path d="M3275 7304 c-264 -101 -489 -189 -500 -194 -11 -5 -99 -39 -195 -75
-152 -58 -381 -155 -545 -230 -27 -13 -133 -60 -235 -105 -102 -45 -207 -93
-235 -105 -56 -26 -195 -88 -401 -179 l-60 -27 -290 -652 c-159 -358 -300
-679 -312 -712 -13 -33 -28 -69 -33 -80 -5 -11 -49 -127 -99 -258 -50 -131
-106 -277 -124 -325 -97 -246 -236 -616 -236 -627 0 -10 144 -399 170 -460 5
-11 23 -58 40 -105 17 -47 35 -94 40 -105 5 -11 58 -153 119 -315 60 -162 126
-331 147 -375 20 -44 91 -204 159 -355 68 -151 134 -300 148 -330 13 -30 40
-91 60 -135 38 -87 75 -170 114 -254 14 -29 40 -90 59 -135 20 -44 41 -86 47
-92 7 -6 41 -23 77 -36 107 -41 523 -208 555 -223 17 -7 66 -27 110 -44 44
-18 89 -36 100 -41 11 -5 94 -39 185 -75 91 -37 179 -73 195 -80 17 -8 131
-57 255 -109 124 -51 329 -138 455 -191 127 -54 255 -108 285 -120 30 -12 125
-52 211 -88 218 -94 218 -94 482 19 111 47 220 94 242 104 22 10 195 84 385
164 190 81 359 153 375 160 17 8 235 96 485 196 250 100 469 188 485 195 17 7
78 32 138 55 59 23 107 45 107 49 0 6 -51 61 -290 311 -81 85 -188 198 -238
250 -49 52 -125 132 -168 177 l-79 81 -75 -30 c-41 -16 -88 -35 -105 -43 -16
-7 -55 -23 -85 -34 -30 -12 -65 -26 -77 -31 -32 -14 -57 -24 -148 -60 -44 -17
-89 -35 -100 -40 -11 -5 -67 -28 -125 -50 -58 -23 -305 -127 -549 -232 l-444
-190 -76 33 c-42 17 -116 49 -166 69 -49 21 -252 106 -450 190 -198 84 -542
226 -764 316 -222 90 -405 165 -406 166 -1 2 -41 93 -90 203 -48 110 -100 227
-116 260 -166 364 -246 555 -394 950 -87 231 -158 424 -158 430 0 9 42 125 84
230 7 17 13 32 14 35 1 3 5 14 10 25 4 11 59 155 122 320 63 165 130 333 149
373 19 41 34 75 34 77 0 2 15 36 34 77 18 40 54 120 79 178 25 58 61 140 81
183 20 42 36 79 36 82 0 4 23 54 93 205 l34 75 179 79 c99 44 211 94 249 112
205 93 490 216 560 242 105 39 295 111 320 123 11 4 81 31 155 60 74 28 191
73 259 100 l123 48 57 -23 c31 -13 142 -58 246 -101 105 -42 204 -82 220 -89
17 -7 62 -26 100 -41 39 -15 84 -33 100 -41 17 -7 64 -26 106 -43 79 -31 565
-235 768 -322 110 -47 115 -48 135 -32 11 10 67 64 126 119 58 56 128 123 155
149 28 26 129 122 225 215 96 92 204 195 240 229 53 50 62 63 50 71 -8 5 -18
10 -23 10 -4 0 -29 10 -55 21 -71 32 -99 44 -197 84 -49 21 -108 46 -130 56
-22 10 -69 30 -105 44 -36 15 -89 38 -118 51 -29 13 -54 24 -57 24 -4 0 -311
129 -371 156 -29 13 -444 182 -929 379 -126 52 -297 121 -379 154 -82 34 -152
61 -155 60 -3 0 -222 -83 -486 -185z"/>
<path d="M6423 6162 c-34 -31 -137 -129 -228 -217 -194 -186 -281 -269 -422
-402 -87 -83 -100 -99 -92 -117 4 -12 43 -104 85 -206 42 -102 82 -200 90
-217 27 -64 42 -99 77 -183 20 -47 61 -146 93 -220 140 -332 346 -847 346
-865 0 -11 -28 -87 -62 -170 -34 -82 -102 -249 -152 -370 -50 -121 -95 -231
-101 -245 -5 -14 -11 -29 -13 -35 -3 -11 -126 -309 -149 -360 -8 -16 -41 -97
-76 -180 -34 -82 -70 -168 -80 -190 -10 -22 -24 -56 -32 -76 -18 -44 -35 -20
190 -255 89 -93 185 -194 213 -224 28 -30 124 -131 212 -223 l161 -168 12 28
c7 15 21 48 32 73 11 25 28 65 38 90 10 25 26 63 36 85 9 22 65 155 124 295
59 140 129 307 155 370 27 63 142 342 255 620 113 278 240 587 281 687 104
256 104 260 -41 598 -7 17 -47 113 -88 215 -160 395 -215 528 -443 1072 -129
310 -261 624 -291 698 -31 74 -59 138 -63 142 -3 5 -33 -18 -67 -50z"/>
</g>
</svg>
